<?xml version="1.0" encoding="UTF-8"?>
<svg id="uuid-fb4e6430-86af-46d0-841c-1a05052a9f98" data-name="Слой 1" xmlns="http://www.w3.org/2000/svg" viewBox="0 0 779.23 399.83">
  <defs>
    <style>
      .uuid-0c6dfffe-fa7b-4259-a01e-a9fb69d27e90 {
        fill: #22114c;
      }

      .uuid-059f8b84-b8a0-4664-989f-ca39e73ce29a {
        fill: #59bcaf;
      }
    </style>
  </defs>
  <g>
    <path class="uuid-059f8b84-b8a0-4664-989f-ca39e73ce29a" d="m173.13,0L0,99.96v199.91l173.13,99.96,173.13-99.96V99.96L173.13,0Z"/>
    <g>
      <path class="uuid-0c6dfffe-fa7b-4259-a01e-a9fb69d27e90" d="m250.77,250.77c-1.36.8-2.98,1.59-4.4,2.21-2.26.99-4.59,1.82-6.96,2.49-4.75,1.33-9.67,2-14.6,2-29.89,0-54.17-24.31-54.17-54.17,0-18.84,8.72-34.82,23.33-44.53,5.4,10.89,13.49,23.35,38.28,28.09-4.59,5.71-9.29,9.97-21.6,9.24-2.98-.18-7.24-1.45-9.49,1.38-1.98,2.49.18,6.26,2.44,8.51,5.03,4.98,12.1,7.2,18.87,9.24-2.28,2.84-5.66,4.65-9.2,5.48-3.54.83-5.83.88-9.43.38-1.97-.27-4.37-.49-5.54,1.12-.84,1.16-.63,2.78-.2,4.15,3.44,10.87,12.57,16.7,21.52,20.06,13.53,5.09,25.82.66,31.15,4.35Z"/>
      <path class="uuid-0c6dfffe-fa7b-4259-a01e-a9fb69d27e90" d="m284.89,263.14c-18.39,10.63-112.24,63.93-112.24,63.93,0,0-93.33-53.3-111.75-63.93,37.12-6.29,69.46-36.07,79.84-53.85,2.92-5,4.08-10.56,0-12.6-4.45-2.22-16.93,3.55-26.73-9.85,51.43-5.03,53.92-90.11,59.13-117.71,2.12,15.13,4.45,45.34,14.23,73.03-22.98,13.82-37.58,40.28-34.14,69.66,3.8,32.38,26.5,56.65,59.02,58.91,19.21,1.33,34.66-3.17,50.22-14.28,4.45,1.76,15.03,5.46,22.41,6.68Z"/>
    </g>
  </g>
  <g>
    <path class="uuid-059f8b84-b8a0-4664-989f-ca39e73ce29a" d="m423.61,177.19c-5.32,0-10.22-.89-14.7-2.68-4.48-1.78-8.37-4.31-11.67-7.58-3.3-3.27-5.84-7.14-7.62-11.62-1.79-4.48-2.68-9.41-2.68-14.8s.94-10.1,2.83-14.54c1.88-4.44,4.49-8.3,7.83-11.56,3.33-3.27,7.27-5.81,11.82-7.63,4.54-1.82,9.51-2.73,14.9-2.73,3.37,0,6.67.44,9.9,1.31,3.23.88,6.24,2.17,9.04,3.89,2.79,1.72,5.2,3.75,7.22,6.11l-10.5,12.02c-1.41-1.48-2.91-2.78-4.5-3.89-1.58-1.11-3.32-1.97-5.2-2.58-1.89-.61-3.91-.91-6.06-.91-2.69,0-5.24.49-7.63,1.46-2.39.98-4.48,2.36-6.26,4.14-1.79,1.78-3.18,3.96-4.19,6.51-1.01,2.56-1.52,5.42-1.52,8.58s.51,5.91,1.52,8.43c1.01,2.53,2.42,4.7,4.24,6.51,1.82,1.82,4.02,3.2,6.62,4.14,2.59.94,5.47,1.41,8.64,1.41,2.15,0,4.21-.3,6.16-.91,1.95-.61,3.75-1.43,5.4-2.47,1.65-1.04,3.11-2.24,4.39-3.59l8.28,13.13c-1.68,1.89-3.92,3.57-6.72,5.05-2.79,1.48-5.89,2.64-9.29,3.48-3.4.84-6.82,1.26-10.25,1.26Z"/>
    <path class="uuid-059f8b84-b8a0-4664-989f-ca39e73ce29a" d="m493.8,177.19c-5.39,0-10.3-.91-14.75-2.73-4.44-1.82-8.32-4.38-11.62-7.68-3.3-3.3-5.86-7.17-7.68-11.62-1.82-4.44-2.73-9.33-2.73-14.64s.91-10.2,2.73-14.65c1.82-4.44,4.38-8.32,7.68-11.62,3.3-3.3,7.17-5.86,11.62-7.68,4.44-1.82,9.33-2.73,14.64-2.73s10.2.91,14.65,2.73c4.44,1.82,8.31,4.38,11.61,7.68,3.3,3.3,5.84,7.17,7.63,11.62,1.78,4.44,2.68,9.33,2.68,14.65s-.89,10.12-2.68,14.59c-1.79,4.48-4.33,8.37-7.63,11.67s-7.17,5.86-11.61,7.68c-4.44,1.82-9.29,2.73-14.54,2.73Zm-.1-16.16c2.76,0,5.3-.5,7.63-1.51,2.32-1.01,4.34-2.44,6.06-4.29,1.72-1.85,3.05-4.02,3.99-6.51.94-2.49,1.41-5.22,1.41-8.18s-.47-5.69-1.41-8.18c-.94-2.49-2.27-4.66-3.99-6.51-1.72-1.85-3.74-3.28-6.06-4.29-2.32-1.01-4.87-1.51-7.63-1.51s-5.3.5-7.62,1.51c-2.32,1.01-4.36,2.44-6.11,4.29-1.75,1.85-3.08,4.02-3.99,6.51-.91,2.49-1.36,5.22-1.36,8.18s.45,5.71,1.36,8.23c.91,2.52,2.24,4.7,3.99,6.51,1.75,1.82,3.79,3.23,6.11,4.24,2.32,1.01,4.86,1.51,7.62,1.51Z"/>
    <path class="uuid-059f8b84-b8a0-4664-989f-ca39e73ce29a" d="m543.6,176.18v-70.7h15.35l37.07,50.5-3.33-.5c-.34-2.22-.61-4.34-.81-6.36-.2-2.02-.39-4.01-.56-5.96-.17-1.95-.3-3.94-.4-5.96-.1-2.02-.17-4.21-.2-6.57-.04-2.36-.05-4.91-.05-7.68v-17.47h16.67v70.7h-15.55l-38.68-52.12,5.15.71c.34,3.23.62,5.98.86,8.23.24,2.26.44,4.26.61,6.01.17,1.75.29,3.33.35,4.75.07,1.41.12,2.81.15,4.19.03,1.38.05,2.91.05,4.6v23.63h-16.67Z"/>
    <path class="uuid-059f8b84-b8a0-4664-989f-ca39e73ce29a" d="m623.69,176.18v-14.44h11.92v-41.81h-11.92v-14.44h41.11v14.44h-12.02v41.81h12.02v14.44h-41.11Z"/>
    <path class="uuid-059f8b84-b8a0-4664-989f-ca39e73ce29a" d="m391.49,297.38v-70.7h17.17v70.7h-17.17Zm7.98-55.55v-15.15h40.7v15.15h-40.7Zm0,28.48v-14.34h36.56v14.34h-36.56Z"/>
    <path class="uuid-059f8b84-b8a0-4664-989f-ca39e73ce29a" d="m453.91,297.38v-70.7h49.29v14.65h-32.62v41.41h33.63v14.64h-50.3Zm8.08-28.99v-13.94h36.66v13.94h-36.66Z"/>
    <path class="uuid-059f8b84-b8a0-4664-989f-ca39e73ce29a" d="m519.05,297.38v-70.7h31.82c4.51,0,8.6.98,12.27,2.93,3.67,1.95,6.55,4.63,8.64,8.03,2.09,3.4,3.13,7.26,3.13,11.56s-1.04,8.43-3.13,11.97c-2.09,3.54-4.95,6.31-8.58,8.33-3.64,2.02-7.74,3.03-12.32,3.03h-15.45v24.85h-16.36Zm16.36-37.98h13.94c1.75,0,3.28-.39,4.59-1.16,1.31-.77,2.32-1.87,3.03-3.28s1.06-3.03,1.06-4.85-.4-3.42-1.21-4.8c-.81-1.38-1.97-2.44-3.48-3.18-1.52-.74-3.35-1.11-5.5-1.11h-12.42v18.38Zm22.83,37.98l-17.98-31.92,17.57-2.53,20,34.44h-19.59Z"/>
    <path class="uuid-059f8b84-b8a0-4664-989f-ca39e73ce29a" d="m589.95,297.38v-70.7h49.29v14.65h-32.62v41.41h33.63v14.64h-50.3Zm8.08-28.99v-13.94h36.66v13.94h-36.66Z"/>
    <path class="uuid-059f8b84-b8a0-4664-989f-ca39e73ce29a" d="m678.53,298.39c-4.65,0-8.84-.56-12.58-1.67-3.74-1.11-7.05-2.73-9.95-4.85-2.9-2.12-5.49-4.63-7.78-7.52l10.4-11.82c3.37,4.51,6.75,7.54,10.15,9.09,3.4,1.55,6.92,2.32,10.55,2.32,1.82,0,3.47-.24,4.95-.71,1.48-.47,2.63-1.16,3.43-2.07.81-.91,1.21-2.04,1.21-3.38,0-1.01-.25-1.92-.76-2.73-.5-.81-1.2-1.51-2.07-2.12-.88-.61-1.92-1.16-3.13-1.67s-2.49-.94-3.84-1.31c-1.35-.37-2.73-.69-4.14-.96-3.91-.87-7.31-1.95-10.2-3.23-2.9-1.28-5.3-2.84-7.22-4.7-1.92-1.85-3.35-3.97-4.29-6.36-.94-2.39-1.41-5.07-1.41-8.03,0-3.16.72-6.08,2.17-8.74,1.45-2.66,3.4-4.95,5.86-6.87,2.46-1.92,5.3-3.4,8.53-4.44,3.23-1.04,6.6-1.57,10.1-1.57,4.65,0,8.63.49,11.97,1.46,3.33.98,6.19,2.37,8.58,4.19,2.39,1.82,4.43,4.01,6.11,6.57l-10.61,10.2c-1.41-1.75-2.95-3.2-4.6-4.34-1.65-1.14-3.4-2.02-5.25-2.63-1.85-.61-3.75-.91-5.71-.91s-3.75.25-5.2.76c-1.45.5-2.58,1.21-3.38,2.12-.81.91-1.21,2-1.21,3.28,0,1.15.34,2.12,1.01,2.93.67.81,1.58,1.53,2.73,2.17,1.14.64,2.46,1.18,3.94,1.62,1.48.44,3.03.79,4.65,1.06,3.7.74,7.05,1.72,10.05,2.93,3,1.21,5.59,2.69,7.78,4.44,2.19,1.75,3.87,3.82,5.05,6.21,1.18,2.39,1.77,5.17,1.77,8.33,0,4.92-1.2,9.07-3.59,12.47-2.39,3.4-5.66,5.99-9.8,7.78-4.14,1.78-8.91,2.68-14.29,2.68Z"/>
    <path class="uuid-059f8b84-b8a0-4664-989f-ca39e73ce29a" d="m734.48,297.38v-55.55h-21.01v-15.15h59.69v15.15h-21.51v55.55h-17.17Z"/>
  </g>
</svg>